<?xml version="1.0" encoding="UTF-8"?><svg id="Logos" xmlns="http://www.w3.org/2000/svg" width="55.37" height="72" viewBox="0 0 55.37 72"><defs><style>.cls-1{fill:#e03875;stroke-width:0px;}</style></defs><path class="cls-1" d="M28.08,64.17c-4.57,0-9.06-1.11-13.1-3.24-4.04-2.13-7.5-5.21-10.08-8.98-2.58-3.77-4.2-8.11-4.72-12.64-.52-4.54.07-9.13,1.73-13.38,1.66-4.25,4.33-8.04,7.78-11.03,3.45-2.99,7.58-5.09,12.03-6.12,4.45-1.03,9.08-.96,13.49.21,4.41,1.17,8.48,3.39,11.84,6.48h0l-6.66,6.96c-2.65-2.39-5.93-3.96-9.45-4.52-3.52-.56-7.13-.09-10.39,1.36-3.26,1.45-6.03,3.81-7.97,6.8-1.94,2.99-2.98,6.48-2.98,10.05s1.03,7.06,2.98,10.05c1.94,2.99,4.71,5.35,7.97,6.8,3.26,1.45,6.87,1.92,10.39,1.36,3.52-.56,6.81-2.13,9.45-4.52l6.66,6.96c-5.17,4.76-11.95,7.41-18.98,7.4h0Z"/><path class="cls-1" d="M50.66,50.14c-.45,0-.9-.13-1.28-.39-.38-.25-.67-.61-.85-1.03-.17-.42-.22-.88-.13-1.33.09-.45.31-.86.63-1.18.32-.32.73-.54,1.18-.63.45-.09.91-.04,1.33.13s.78.47,1.03.85c.25.38.39.82.39,1.28,0,.61-.24,1.19-.67,1.62-.43.43-1.02.67-1.62.67h0Z"/><path class="cls-1" d="M27.9,42.19c-1.2,0-2.38-.35-3.38-1.01-1-.67-1.79-1.61-2.25-2.72-.46-1.11-.59-2.33-.36-3.51.23-1.18.81-2.27,1.66-3.12.85-.85,1.93-1.43,3.11-1.67,1.18-.24,2.4-.12,3.52.34,1.11.46,2.06,1.24,2.73,2.24.67,1,1.02,2.18,1.02,3.38,0,1.61-.64,3.15-1.77,4.28-1.13,1.14-2.67,1.78-4.28,1.79h0Z"/><path class="cls-1" d="M53.29,42.3c-.45,0-.9-.13-1.28-.39-.38-.25-.67-.61-.85-1.03-.17-.42-.22-.88-.13-1.33.09-.45.31-.86.63-1.18s.73-.54,1.18-.63c.45-.09.91-.04,1.33.13.42.17.78.47,1.03.85.25.38.39.82.39,1.28,0,.61-.24,1.19-.67,1.62s-1.02.67-1.62.67Z"/><path class="cls-1" d="M46.46,42.01c-.46,0-.9-.14-1.28-.39-.38-.25-.67-.61-.85-1.04-.17-.42-.22-.89-.13-1.33.09-.45.31-.86.64-1.18.32-.32.74-.54,1.18-.62.45-.09.91-.04,1.33.14.42.18.78.48,1.03.86.25.38.38.83.37,1.28,0,.61-.25,1.18-.68,1.61-.43.43-1.01.66-1.62.66h0Z"/><path class="cls-1" d="M53.29,34.55c-.45,0-.9-.14-1.28-.39-.38-.25-.67-.61-.85-1.03-.17-.42-.22-.88-.13-1.33.09-.45.31-.86.63-1.18.32-.32.73-.54,1.18-.63.45-.09.91-.04,1.33.13.42.17.78.47,1.03.85.25.38.39.82.39,1.28,0,.61-.24,1.19-.67,1.62-.43.43-1.02.67-1.62.67Z"/><path class="cls-1" d="M46.46,34.81c-.45,0-.9-.13-1.28-.39-.38-.25-.67-.61-.85-1.03-.17-.42-.22-.88-.13-1.33.09-.45.31-.86.63-1.18.32-.32.73-.54,1.18-.63.45-.09.91-.04,1.33.13.42.17.78.47,1.03.85.25.38.39.82.39,1.28,0,.61-.24,1.19-.67,1.63-.43.43-1.02.67-1.63.67h0Z"/><path class="cls-1" d="M50.79,26.82c-.45,0-.9-.13-1.28-.38-.38-.25-.67-.61-.85-1.03-.17-.42-.22-.88-.13-1.33.09-.45.31-.86.63-1.18.32-.32.73-.54,1.18-.63.45-.09.91-.04,1.33.13.42.17.78.47,1.03.85.25.38.39.82.39,1.28,0,.61-.24,1.19-.67,1.62-.43.43-1.01.67-1.62.68Z"/></svg>