<?xml version="1.0" encoding="UTF-8" standalone="no"?>
<!DOCTYPE svg PUBLIC "-//W3C//DTDSVG1.1//EN" "http://www.w3.org/Graphics/SVG/1.1/DTD/svg11.dtd">
<!-- Generated by graphviz version 2.40.1 (20161225.0304)
 --><!-- Title: %0 Pages: 1 -->
  <svg xmlns="http://www.w3.org/2000/svg" xmlns:xlink="http://www.w3.org/1999/xlink" width="1389pt" height="404pt" viewBox="0.00 0.00 1388.53 404.00"> <g id="graph0" class="graph" transform="scale(1 1) rotate(0) translate(4 400)">
    <title>%0</title>
    <polygon
    fill="#ffffff" stroke="transparent" points="-4,4 -4,-400 1384.5316,-400 1384.5316,4 -4,4"/>
    <!-- [root] ncloud_subnet.main (expand) -->
    <g id="node1" class="node">
      <title>[root] ncloud_subnet.main (expand)</title>
      <polygon fill="none" stroke="#000000" points="894.9411,-252 765.6394,-252 765.6394,-216 894.9411,-216 894.9411,-252"/>
      <text text-anchor="middle" x="830.2903" y="-229.8" font-family="Times,serif" font-size="14.00" fill="#000000">ncloud_subnet.main</text>
    </g>
    <!-- [root] ncloud_vpc.main (expand) -->
    <g id="node2" class="node">
      <title>[root] ncloud_vpc.main (expand)</title>
      <polygon fill="none" stroke="#000000" points="823.606,-180 710.9745,-180 710.9745,-144 823.606,-144 823.606,-180"/>
      <text text-anchor="middle" x="767.2903" y="-157.8" font-family="Times,serif" font-size="14.00" fill="#000000">ncloud_vpc.main</text>
    </g>
    <!-- [root] ncloud_subnet.main (expand)&#45;&gt;[root] ncloud_vpc.main (expand) -->
    <g id="edge2" class="edge">
      <title>[root] ncloud_subnet.main (expand)-&gt;[root] ncloud_vpc.main (expand)</title>
      <path fill="none" stroke="#000000" d="M814.3927,-215.8314C807.0625,-207.454 798.2243,-197.3531 790.1933,-188.1749"/>
      <polygon fill="#000000" stroke="#000000" points="792.621,-185.6343 783.4019,-180.4133 787.3529,-190.2438 792.621,-185.6343"/>
    </g>
    <!-- [root] var.subnet_type -->
    <g id="node8" class="node">
      <title>[root] var.subnet_type</title>
      <polygon fill="none" stroke="#000000" points="940.8205,-180 841.7601,-180 841.7601,-144 946.8205,-144 946.8205,-174 940.8205,-180"/>
      <polyline fill="none" stroke="#000000" points="940.8205,-180 940.8205,-174 "/>
      <polyline fill="none" stroke="#000000" points="946.8205,-174 940.8205,-174 "/>
      <text text-anchor="middle" x="894.2903" y="-157.8" font-family="Times,serif" font-size="14.00" fill="#000000">var.subnet_type</text>
    </g>
    <!-- [root] ncloud_subnet.main (expand)&#45;&gt;[root] var.subnet_type -->
    <g id="edge3" class="edge">
      <title>[root] ncloud_subnet.main (expand)-&gt;[root] var.subnet_type</title>
      <path fill="none" stroke="#000000" d="M846.4402,-215.8314C853.9619,-207.3694 863.0468,-197.1489 871.2706,-187.8971"/>
      <polygon fill="#000000" stroke="#000000" points="873.8952,-190.2127 877.9229,-180.4133 868.6633,-185.5621 873.8952,-190.2127"/>
    </g>
    <!-- [root] provider[&quot;registry.terraform.io/navercloudplatform/ncloud&quot;] -->
    <g id="node3" class="node">
      <title>[root] provider["registry.terraform.io/navercloudplatform/ncloud"]</title>
      <polygon fill="none" stroke="#000000" points="345.2903,-108 .2096,-90 345.2903,-72 690.3709,-90 345.2903,-108"/>
      <text text-anchor="middle" x="345.2903" y="-85.8" font-family="Times,serif" font-size="14.00" fill="#000000">provider["registry.terraform.io/navercloudplatform/ncloud"]</text>
    </g>
    <!-- [root] ncloud_vpc.main (expand)&#45;&gt;[root] provider[&quot;registry.terraform.io/navercloudplatform/ncloud&quot;] -->
    <g id="edge4" class="edge">
      <title>[root] ncloud_vpc.main (expand)-&gt;[root] provider["registry.terraform.io/navercloudplatform/ncloud"]</title>
      <path fill="none" stroke="#000000" d="M710.8153,-152.3645C640.5663,-140.3788 519.7314,-119.7625 436.3349,-105.5337"/>
      <polygon fill="#000000" stroke="#000000" points="436.8023,-102.0629 426.3561,-103.8311 435.625,-108.9632 436.8023,-102.0629"/>
    </g>
    <!-- [root] var.address_space -->
    <g id="node4" class="node">
      <title>[root] var.address_space</title>
      <polygon fill="none" stroke="#000000" points="820.2337,-108 708.3468,-108 708.3468,-72 826.2337,-72 826.2337,-102 820.2337,-108"/>
      <polyline fill="none" stroke="#000000" points="820.2337,-108 820.2337,-102 "/>
      <polyline fill="none" stroke="#000000" points="826.2337,-102 820.2337,-102 "/>
      <text text-anchor="middle" x="767.2903" y="-85.8" font-family="Times,serif" font-size="14.00" fill="#000000">var.address_space</text>
    </g>
    <!-- [root] ncloud_vpc.main (expand)&#45;&gt;[root] var.address_space -->
    <g id="edge5" class="edge">
      <title>[root] ncloud_vpc.main (expand)-&gt;[root] var.address_space</title>
      <path fill="none" stroke="#000000" d="M767.2903,-143.8314C767.2903,-136.131 767.2903,-126.9743 767.2903,-118.4166"/>
      <polygon fill="#000000" stroke="#000000" points="770.7904,-118.4132 767.2903,-108.4133 763.7904,-118.4133 770.7904,-118.4132"/>
    </g>
    <!-- [root] var.prefix -->
    <g id="node5" class="node">
      <title>[root] var.prefix</title>
      <polygon fill="none" stroke="#000000" points="908.5921,-108 843.9884,-108 843.9884,-72 914.5921,-72 914.5921,-102 908.5921,-108"/>
      <polyline fill="none" stroke="#000000" points="908.5921,-108 908.5921,-102 "/>
      <polyline fill="none" stroke="#000000" points="914.5921,-102 908.5921,-102 "/>
      <text text-anchor="middle" x="879.2903" y="-85.8" font-family="Times,serif" font-size="14.00" fill="#000000">var.prefix</text>
    </g>
    <!-- [root] ncloud_vpc.main (expand)&#45;&gt;[root] var.prefix -->
    <g id="edge6" class="edge">
      <title>[root] ncloud_vpc.main (expand)-&gt;[root] var.prefix</title>
      <path fill="none" stroke="#000000" d="M795.5526,-143.8314C809.7454,-134.7074 827.1184,-123.539 842.3538,-113.7449"/>
      <polygon fill="#000000" stroke="#000000" points="844.5178,-116.5146 851.037,-108.1628 840.7325,-110.6263 844.5178,-116.5146"/>
    </g>
    <!-- [root] var.region -->
    <g id="node6" class="node">
      <title>[root] var.region</title>
      <polygon fill="none" stroke="#000000" points="334.9314,-36 267.6491,-36 267.6491,0 340.9314,0 340.9314,-30 334.9314,-36"/>
      <polyline fill="none" stroke="#000000" points="334.9314,-36 334.9314,-30 "/>
      <polyline fill="none" stroke="#000000" points="340.9314,-30 334.9314,-30 "/>
      <text text-anchor="middle" x="304.2903" y="-13.8" font-family="Times,serif" font-size="14.00" fill="#000000">var.region</text>
    </g>
    <!-- [root] provider[&quot;registry.terraform.io/navercloudplatform/ncloud&quot;]&#45;&gt;[root] var.region -->
    <g id="edge8" class="edge">
      <title>[root] provider["registry.terraform.io/navercloudplatform/ncloud"]-&gt;[root] var.region</title>
      <path fill="none" stroke="#000000" d="M335.1554,-72.2022C330.4602,-63.9569 324.7805,-53.9828 319.5799,-44.8501"/>
      <polygon fill="#000000" stroke="#000000" points="322.5832,-43.051 314.5933,-36.0931 316.5003,-46.5149 322.5832,-43.051"/>
    </g>
    <!-- [root] var.site -->
    <g id="node7" class="node">
      <title>[root] var.site</title>
      <polygon fill="none" stroke="#000000" points="409.6062,-36 358.9744,-36 358.9744,0 415.6062,0 415.6062,-30 409.6062,-36"/>
      <polyline fill="none" stroke="#000000" points="409.6062,-36 409.6062,-30 "/>
      <polyline fill="none" stroke="#000000" points="415.6062,-30 409.6062,-30 "/>
      <text text-anchor="middle" x="387.2903" y="-13.8" font-family="Times,serif" font-size="14.00" fill="#000000">var.site</text>
    </g>
    <!-- [root] provider[&quot;registry.terraform.io/navercloudplatform/ncloud&quot;]&#45;&gt;[root] var.site -->
    <g id="edge9" class="edge">
      <title>[root] provider["registry.terraform.io/navercloudplatform/ncloud"]-&gt;[root] var.site</title>
      <path fill="none" stroke="#000000" d="M355.6723,-72.2022C360.4821,-63.9569 366.3003,-53.9828 371.6277,-44.8501"/>
      <polygon fill="#000000" stroke="#000000" points="374.7204,-46.4945 376.7359,-36.0931 368.6739,-42.9674 374.7204,-46.4945"/>
    </g>
    <!-- [root] meta.count&#45;boundary (EachMode fixup) -->
    <g id="node9" class="node">
      <title>[root] meta.count-boundary (EachMode fixup)</title>
      <ellipse fill="none" stroke="#000000" cx="577.2903" cy="-306" rx="191.4666" ry="18"/>
      <text text-anchor="middle" x="577.2903" y="-301.8" font-family="Times,serif" font-size="14.00" fill="#000000">[root] meta.count-boundary (EachMode fixup)</text>
    </g>
    <!-- [root] meta.count&#45;boundary (EachMode fixup)&#45;&gt;[root] ncloud_subnet.main (expand) -->
    <g id="edge1" class="edge">
      <title>[root] meta.count-boundary (EachMode fixup)-&gt;[root] ncloud_subnet.main (expand)</title>
      <path fill="none" stroke="#000000" d="M637.5686,-288.8457C673.3913,-278.6511 719.0809,-265.6485 756.9816,-254.8625"/>
      <polygon fill="#000000" stroke="#000000" points="758.283,-258.1312 766.9431,-252.0277 756.3669,-251.3986 758.283,-258.1312"/>
    </g>
    <!-- [root] provider[&quot;registry.terraform.io/navercloudplatform/ncloud&quot;] (close) -->
    <g id="node10" class="node">
      <title>[root] provider["registry.terraform.io/navercloudplatform/ncloud"] (close)</title>
      <ellipse fill="none" stroke="#000000" cx="1083.2903" cy="-306" rx="297.4828" ry="18"/>
      <text text-anchor="middle" x="1083.2903" y="-301.8" font-family="Times,serif" font-size="14.00" fill="#000000">[root] provider["registry.terraform.io/navercloudplatform/ncloud"] (close)</text>
    </g>
    <!-- [root] provider[&quot;registry.terraform.io/navercloudplatform/ncloud&quot;] (close)&#45;&gt;[root] ncloud_subnet.main (expand) -->
    <g id="edge7" class="edge">
      <title>[root] provider["registry.terraform.io/navercloudplatform/ncloud"] (close)-&gt;[root] ncloud_subnet.main (expand)</title>
      <path fill="none" stroke="#000000" d="M1021.3995,-288.3868C985.8128,-278.2594 940.9012,-265.4782 903.5588,-254.8511"/>
      <polygon fill="#000000" stroke="#000000" points="904.3174,-251.4281 893.7413,-252.0572 902.4014,-258.1608 904.3174,-251.4281"/>
    </g>
    <!-- [root] root -->
    <g id="node11" class="node">
      <title>[root] root</title>
      <ellipse fill="none" stroke="#000000" cx="830.2903" cy="-378" rx="50.9823" ry="18"/>
      <text text-anchor="middle" x="830.2903" y="-373.8" font-family="Times,serif" font-size="14.00" fill="#000000">[root] root</text>
    </g>
    <!-- [root] root&#45;&gt;[root] meta.count&#45;boundary (EachMode fixup) -->
    <g id="edge10" class="edge">
      <title>[root] root-&gt;[root] meta.count-boundary (EachMode fixup)</title>
      <path fill="none" stroke="#000000" d="M790.4807,-366.6708C752.1555,-355.764 693.3752,-339.036 647.2351,-325.9053"/>
      <polygon fill="#000000" stroke="#000000" points="648.1692,-322.5322 637.5931,-323.1613 646.2532,-329.2649 648.1692,-322.5322"/>
    </g>
    <!-- [root] root&#45;&gt;[root] provider[&quot;registry.terraform.io/navercloudplatform/ncloud&quot;] (close) -->
    <g id="edge11" class="edge">
      <title>[root] root-&gt;[root] provider["registry.terraform.io/navercloudplatform/ncloud"] (close)</title>
      <path fill="none" stroke="#000000" d="M870.0998,-366.6708C907.8263,-355.9344 965.3737,-339.5573 1011.1737,-326.5233"/>
      <polygon fill="#000000" stroke="#000000" points="1012.3932,-329.8153 1021.0533,-323.7117 1010.4772,-323.0826 1012.3932,-329.8153"/>
    </g>
  </g>
</svg>
