<?xml version="1.0" encoding="UTF-8" standalone="no"?>
<!DOCTYPE svg PUBLIC "-//W3C//DTD SVG 1.1//EN" "http://www.w3.org/Graphics/SVG/1.1/DTD/svg11.dtd">
<!-- Generated by graphviz version 2.40.1 (20161225.0304)
 -->
<!-- Title: %0 Pages: 1 -->
<svg width="2013pt" height="692pt" viewBox="0.00 0.00 2013.44 692.00" xmlns="http://www.w3.org/2000/svg" xmlns:xlink="http://www.w3.org/1999/xlink">
<g id="graph0" class="graph" transform="scale(1 1) rotate(0) translate(4 688)">
<title>%0</title>
<polygon fill="#ffffff" stroke="transparent" points="-4,4 -4,-688 2009.4397,-688 2009.4397,4 -4,4"/>
<!-- [root] data.ncloud_access_control_group.hashicat (expand) -->
<g id="node1" class="node">
<title>[root] data.ncloud_access_control_group.hashicat (expand)</title>
<polygon fill="none" stroke="#000000" points="259.539,-324 -.1798,-324 -.1798,-288 259.539,-288 259.539,-324"/>
<text text-anchor="middle" x="129.6796" y="-301.8" font-family="Times,serif" font-size="14.00" fill="#000000">data.ncloud_access_control_group.hashicat</text>
</g>
<!-- [root] ncloud_vpc.hashicat (expand) -->
<g id="node14" class="node">
<title>[root] ncloud_vpc.hashicat (expand)</title>
<polygon fill="none" stroke="#000000" points="645.8694,-180 515.4898,-180 515.4898,-144 645.8694,-144 645.8694,-180"/>
<text text-anchor="middle" x="580.6796" y="-157.8" font-family="Times,serif" font-size="14.00" fill="#000000">ncloud_vpc.hashicat</text>
</g>
<!-- [root] data.ncloud_access_control_group.hashicat (expand)&#45;&gt;[root] ncloud_vpc.hashicat (expand) -->
<g id="edge1" class="edge">
<title>[root] data.ncloud_access_control_group.hashicat (expand)-&gt;[root] ncloud_vpc.hashicat (expand)</title>
<path fill="none" stroke="#000000" d="M186.3424,-287.9081C269.9162,-261.2238 425.8854,-211.4243 514.5664,-183.1093"/>
<polygon fill="#000000" stroke="#000000" points="515.787,-186.3937 524.2486,-180.0179 513.6578,-179.7254 515.787,-186.3937"/>
</g>
<!-- [root] data.ncloud_root_password.hashicat (expand) -->
<g id="node2" class="node">
<title>[root] data.ncloud_root_password.hashicat (expand)</title>
<polygon fill="none" stroke="#000000" points="957.3966,-468 737.9626,-468 737.9626,-432 957.3966,-432 957.3966,-468"/>
<text text-anchor="middle" x="847.6796" y="-445.8" font-family="Times,serif" font-size="14.00" fill="#000000">data.ncloud_root_password.hashicat</text>
</g>
<!-- [root] ncloud_server.hashicat (expand) -->
<g id="node12" class="node">
<title>[root] ncloud_server.hashicat (expand)</title>
<polygon fill="none" stroke="#000000" points="1026.8498,-396 882.5094,-396 882.5094,-360 1026.8498,-360 1026.8498,-396"/>
<text text-anchor="middle" x="954.6796" y="-373.8" font-family="Times,serif" font-size="14.00" fill="#000000">ncloud_server.hashicat</text>
</g>
<!-- [root] data.ncloud_root_password.hashicat (expand)&#45;&gt;[root] ncloud_server.hashicat (expand) -->
<g id="edge2" class="edge">
<title>[root] data.ncloud_root_password.hashicat (expand)-&gt;[root] ncloud_server.hashicat (expand)</title>
<path fill="none" stroke="#000000" d="M874.6802,-431.8314C888.1127,-422.7927 904.5269,-411.7476 918.9835,-402.0198"/>
<polygon fill="#000000" stroke="#000000" points="921.345,-404.6494 927.6876,-396.1628 917.4371,-398.8418 921.345,-404.6494"/>
</g>
<!-- [root] data.ncloud_server_image.hashicat (expand) -->
<g id="node3" class="node">
<title>[root] data.ncloud_server_image.hashicat (expand)</title>
<polygon fill="none" stroke="#000000" points="1116.8798,-180 904.4794,-180 904.4794,-144 1116.8798,-144 1116.8798,-180"/>
<text text-anchor="middle" x="1010.6796" y="-157.8" font-family="Times,serif" font-size="14.00" fill="#000000">data.ncloud_server_image.hashicat</text>
</g>
<!-- [root] provider[&quot;registry.terraform.io/navercloudplatform/ncloud&quot;] -->
<g id="node19" class="node">
<title>[root] provider["registry.terraform.io/navercloudplatform/ncloud"]</title>
<polygon fill="none" stroke="#000000" points="995.6796,-108 650.599,-90 995.6796,-72 1340.7602,-90 995.6796,-108"/>
<text text-anchor="middle" x="995.6796" y="-85.8" font-family="Times,serif" font-size="14.00" fill="#000000">provider["registry.terraform.io/navercloudplatform/ncloud"]</text>
</g>
<!-- [root] data.ncloud_server_image.hashicat (expand)&#45;&gt;[root] provider[&quot;registry.terraform.io/navercloudplatform/ncloud&quot;] -->
<g id="edge3" class="edge">
<title>[root] data.ncloud_server_image.hashicat (expand)-&gt;[root] provider["registry.terraform.io/navercloudplatform/ncloud"]</title>
<path fill="none" stroke="#000000" d="M1006.8945,-143.8314C1005.2476,-135.9266 1003.2811,-126.4872 1001.458,-117.7365"/>
<polygon fill="#000000" stroke="#000000" points="1004.8776,-116.9894 999.4116,-107.9134 998.0248,-118.4171 1004.8776,-116.9894"/>
</g>
<!-- [root] data.ncloud_server_products.hashicat (expand) -->
<g id="node4" class="node">
<title>[root] data.ncloud_server_products.hashicat (expand)</title>
<polygon fill="none" stroke="#000000" points="1123.8798,-252 897.4794,-252 897.4794,-216 1123.8798,-216 1123.8798,-252"/>
<text text-anchor="middle" x="1010.6796" y="-229.8" font-family="Times,serif" font-size="14.00" fill="#000000">data.ncloud_server_products.hashicat</text>
</g>
<!-- [root] data.ncloud_server_products.hashicat (expand)&#45;&gt;[root] data.ncloud_server_image.hashicat (expand) -->
<g id="edge4" class="edge">
<title>[root] data.ncloud_server_products.hashicat (expand)-&gt;[root] data.ncloud_server_image.hashicat (expand)</title>
<path fill="none" stroke="#000000" d="M1010.6796,-215.8314C1010.6796,-208.131 1010.6796,-198.9743 1010.6796,-190.4166"/>
<polygon fill="#000000" stroke="#000000" points="1014.1797,-190.4132 1010.6796,-180.4133 1007.1797,-190.4133 1014.1797,-190.4132"/>
</g>
<!-- [root] ncloud_access_control_group_rule.hashicat (expand) -->
<g id="node5" class="node">
<title>[root] ncloud_access_control_group_rule.hashicat (expand)</title>
<polygon fill="none" stroke="#000000" points="318.485,-468 56.8742,-468 56.8742,-432 318.485,-432 318.485,-468"/>
<text text-anchor="middle" x="187.6796" y="-445.8" font-family="Times,serif" font-size="14.00" fill="#000000">ncloud_access_control_group_rule.hashicat</text>
</g>
<!-- [root] ncloud_access_control_group_rule.hashicat (expand)&#45;&gt;[root] data.ncloud_access_control_group.hashicat (expand) -->
<g id="edge11" class="edge">
<title>[root] ncloud_access_control_group_rule.hashicat (expand)-&gt;[root] data.ncloud_access_control_group.hashicat (expand)</title>
<path fill="none" stroke="#000000" d="M97.8437,-431.9825C61.8101,-422.7694 26.2837,-410.4436 15.6796,-396 6.2107,-383.1027 7.1236,-373.5202 15.6796,-360 24.2624,-346.4375 37.2743,-336.2146 51.4759,-328.5309"/>
<polygon fill="#000000" stroke="#000000" points="53.0504,-331.6568 60.4432,-324.0676 49.9312,-325.3902 53.0504,-331.6568"/>
</g>
<!-- [root] local.public_subnet_inbound (expand) -->
<g id="node29" class="node">
<title>[root] local.public_subnet_inbound (expand)</title>
<ellipse fill="none" stroke="#000000" cx="208.6796" cy="-378" rx="184.0253" ry="18"/>
<text text-anchor="middle" x="208.6796" y="-373.8" font-family="Times,serif" font-size="14.00" fill="#000000">[root] local.public_subnet_inbound (expand)</text>
</g>
<!-- [root] ncloud_access_control_group_rule.hashicat (expand)&#45;&gt;[root] local.public_subnet_inbound (expand) -->
<g id="edge12" class="edge">
<title>[root] ncloud_access_control_group_rule.hashicat (expand)-&gt;[root] local.public_subnet_inbound (expand)</title>
<path fill="none" stroke="#000000" d="M192.9788,-431.8314C195.2494,-424.0463 197.9542,-414.7729 200.4736,-406.1347"/>
<polygon fill="#000000" stroke="#000000" points="203.869,-406.9933 203.3091,-396.4133 197.149,-405.0332 203.869,-406.9933"/>
</g>
<!-- [root] ncloud_login_key.hashicat (expand) -->
<g id="node6" class="node">
<title>[root] ncloud_login_key.hashicat (expand)</title>
<polygon fill="none" stroke="#000000" points="886.1509,-180 719.2083,-180 719.2083,-144 886.1509,-144 886.1509,-180"/>
<text text-anchor="middle" x="802.6796" y="-157.8" font-family="Times,serif" font-size="14.00" fill="#000000">ncloud_login_key.hashicat</text>
</g>
<!-- [root] ncloud_login_key.hashicat (expand)&#45;&gt;[root] provider[&quot;registry.terraform.io/navercloudplatform/ncloud&quot;] -->
<g id="edge13" class="edge">
<title>[root] ncloud_login_key.hashicat (expand)-&gt;[root] provider["registry.terraform.io/navercloudplatform/ncloud"]</title>
<path fill="none" stroke="#000000" d="M851.3816,-143.8314C879.5738,-133.3141 915.0475,-120.0804 943.7673,-109.3662"/>
<polygon fill="#000000" stroke="#000000" points="945.082,-112.6115 953.2279,-105.8369 942.6353,-106.053 945.082,-112.6115"/>
</g>
<!-- [root] var.prefix -->
<g id="node23" class="node">
<title>[root] var.prefix</title>
<polygon fill="none" stroke="#000000" points="625.9815,-108 561.3777,-108 561.3777,-72 631.9815,-72 631.9815,-102 625.9815,-108"/>
<polyline fill="none" stroke="#000000" points="625.9815,-108 625.9815,-102 "/>
<polyline fill="none" stroke="#000000" points="631.9815,-102 625.9815,-102 "/>
<text text-anchor="middle" x="596.6796" y="-85.8" font-family="Times,serif" font-size="14.00" fill="#000000">var.prefix</text>
</g>
<!-- [root] ncloud_login_key.hashicat (expand)&#45;&gt;[root] var.prefix -->
<g id="edge14" class="edge">
<title>[root] ncloud_login_key.hashicat (expand)-&gt;[root] var.prefix</title>
<path fill="none" stroke="#000000" d="M746.1512,-143.9118C717.3941,-134.5074 681.7309,-122.5373 641.8621,-107.9786"/>
<polygon fill="#000000" stroke="#000000" points="643.0637,-104.6914 632.4701,-104.5293 640.6504,-111.2622 643.0637,-104.6914"/>
</g>
<!-- [root] ncloud_nat_gateway.hashicat (expand) -->
<g id="node7" class="node">
<title>[root] ncloud_nat_gateway.hashicat (expand)</title>
<polygon fill="none" stroke="#000000" points="841.4007,-324 659.9585,-324 659.9585,-288 841.4007,-288 841.4007,-324"/>
<text text-anchor="middle" x="750.6796" y="-301.8" font-family="Times,serif" font-size="14.00" fill="#000000">ncloud_nat_gateway.hashicat</text>
</g>
<!-- [root] ncloud_nat_gateway.hashicat (expand)&#45;&gt;[root] ncloud_vpc.hashicat (expand) -->
<g id="edge15" class="edge">
<title>[root] ncloud_nat_gateway.hashicat (expand)-&gt;[root] ncloud_vpc.hashicat (expand)</title>
<path fill="none" stroke="#000000" d="M751.7501,-287.8549C751.9268,-267.8837 749.1136,-235.9698 731.6796,-216 712.437,-193.9584 683.5456,-180.9134 656.1704,-173.193"/>
<polygon fill="#000000" stroke="#000000" points="656.734,-169.7229 646.1741,-170.5828 654.9654,-176.4958 656.734,-169.7229"/>
</g>
<!-- [root] var.zone -->
<g id="node27" class="node">
<title>[root] var.zone</title>
<polygon fill="none" stroke="#000000" points="716.4843,-252 658.8749,-252 658.8749,-216 722.4843,-216 722.4843,-246 716.4843,-252"/>
<polyline fill="none" stroke="#000000" points="716.4843,-252 716.4843,-246 "/>
<polyline fill="none" stroke="#000000" points="722.4843,-246 716.4843,-246 "/>
<text text-anchor="middle" x="690.6796" y="-229.8" font-family="Times,serif" font-size="14.00" fill="#000000">var.zone</text>
</g>
<!-- [root] ncloud_nat_gateway.hashicat (expand)&#45;&gt;[root] var.zone -->
<g id="edge16" class="edge">
<title>[root] ncloud_nat_gateway.hashicat (expand)-&gt;[root] var.zone</title>
<path fill="none" stroke="#000000" d="M735.5391,-287.8314C728.5579,-279.454 720.1405,-269.3531 712.492,-260.1749"/>
<polygon fill="#000000" stroke="#000000" points="715.1147,-257.8548 706.024,-252.4133 709.7371,-262.3362 715.1147,-257.8548"/>
</g>
<!-- [root] ncloud_network_acl.hashicat (expand) -->
<g id="node8" class="node">
<title>[root] ncloud_network_acl.hashicat (expand)</title>
<polygon fill="none" stroke="#000000" points="640.3469,-252 461.0123,-252 461.0123,-216 640.3469,-216 640.3469,-252"/>
<text text-anchor="middle" x="550.6796" y="-229.8" font-family="Times,serif" font-size="14.00" fill="#000000">ncloud_network_acl.hashicat</text>
</g>
<!-- [root] ncloud_network_acl.hashicat (expand)&#45;&gt;[root] ncloud_vpc.hashicat (expand) -->
<g id="edge17" class="edge">
<title>[root] ncloud_network_acl.hashicat (expand)-&gt;[root] ncloud_vpc.hashicat (expand)</title>
<path fill="none" stroke="#000000" d="M558.2499,-215.8314C561.5289,-207.9617 565.4416,-198.5712 569.0741,-189.8533"/>
<polygon fill="#000000" stroke="#000000" points="572.392,-190.9902 573.0074,-180.4133 565.9304,-188.2979 572.392,-190.9902"/>
</g>
<!-- [root] ncloud_network_acl_rule.hashicat (expand) -->
<g id="node9" class="node">
<title>[root] ncloud_network_acl_rule.hashicat (expand)</title>
<polygon fill="none" stroke="#000000" points="545.1129,-468 336.2463,-468 336.2463,-432 545.1129,-432 545.1129,-468"/>
<text text-anchor="middle" x="440.6796" y="-445.8" font-family="Times,serif" font-size="14.00" fill="#000000">ncloud_network_acl_rule.hashicat</text>
</g>
<!-- [root] ncloud_network_acl_rule.hashicat (expand)&#45;&gt;[root] ncloud_network_acl.hashicat (expand) -->
<g id="edge20" class="edge">
<title>[root] ncloud_network_acl_rule.hashicat (expand)-&gt;[root] ncloud_network_acl.hashicat (expand)</title>
<path fill="none" stroke="#000000" d="M437.4538,-431.9932C434.8386,-413.5196 432.6241,-384.1482 439.6796,-360 452.1066,-317.4673 488.9067,-281.0232 516.7569,-258.4314"/>
<polygon fill="#000000" stroke="#000000" points="519.0296,-261.0965 524.7107,-252.1535 514.6927,-255.6018 519.0296,-261.0965"/>
</g>
<!-- [root] ncloud_network_acl_rule.hashicat (expand)&#45;&gt;[root] local.public_subnet_inbound (expand) -->
<g id="edge18" class="edge">
<title>[root] ncloud_network_acl_rule.hashicat (expand)-&gt;[root] local.public_subnet_inbound (expand)</title>
<path fill="none" stroke="#000000" d="M382.4357,-431.9243C349.4511,-421.6877 308.1018,-408.8552 274.0159,-398.2768"/>
<polygon fill="#000000" stroke="#000000" points="274.7372,-394.836 264.1492,-395.2147 272.6624,-401.5215 274.7372,-394.836"/>
</g>
<!-- [root] local.public_subnet_outbound (expand) -->
<g id="node30" class="node">
<title>[root] local.public_subnet_outbound (expand)</title>
<ellipse fill="none" stroke="#000000" cx="637.6796" cy="-378" rx="188.6824" ry="18"/>
<text text-anchor="middle" x="637.6796" y="-373.8" font-family="Times,serif" font-size="14.00" fill="#000000">[root] local.public_subnet_outbound (expand)</text>
</g>
<!-- [root] ncloud_network_acl_rule.hashicat (expand)&#45;&gt;[root] local.public_subnet_outbound (expand) -->
<g id="edge19" class="edge">
<title>[root] ncloud_network_acl_rule.hashicat (expand)-&gt;[root] local.public_subnet_outbound (expand)</title>
<path fill="none" stroke="#000000" d="M490.1367,-431.9243C517.5798,-421.8943 551.8417,-409.3722 580.4397,-398.9202"/>
<polygon fill="#000000" stroke="#000000" points="581.7121,-402.1816 589.903,-395.4615 579.3092,-395.607 581.7121,-402.1816"/>
</g>
<!-- [root] ncloud_public_ip.hashicat (expand) -->
<g id="node10" class="node">
<title>[root] ncloud_public_ip.hashicat (expand)</title>
<polygon fill="none" stroke="#000000" points="1139.5412,-468 975.818,-468 975.818,-432 1139.5412,-432 1139.5412,-468"/>
<text text-anchor="middle" x="1057.6796" y="-445.8" font-family="Times,serif" font-size="14.00" fill="#000000">ncloud_public_ip.hashicat</text>
</g>
<!-- [root] ncloud_public_ip.hashicat (expand)&#45;&gt;[root] ncloud_server.hashicat (expand) -->
<g id="edge21" class="edge">
<title>[root] ncloud_public_ip.hashicat (expand)-&gt;[root] ncloud_server.hashicat (expand)</title>
<path fill="none" stroke="#000000" d="M1031.6884,-431.8314C1018.758,-422.7927 1002.9574,-411.7476 989.0413,-402.0198"/>
<polygon fill="#000000" stroke="#000000" points="990.8639,-399.0235 980.6625,-396.1628 986.8533,-404.7608 990.8639,-399.0235"/>
</g>
<!-- [root] ncloud_route.hashicat (expand) -->
<g id="node11" class="node">
<title>[root] ncloud_route.hashicat (expand)</title>
<polygon fill="none" stroke="#000000" points="720.4204,-468 580.9388,-468 580.9388,-432 720.4204,-432 720.4204,-468"/>
<text text-anchor="middle" x="650.6796" y="-445.8" font-family="Times,serif" font-size="14.00" fill="#000000">ncloud_route.hashicat</text>
</g>
<!-- [root] ncloud_route.hashicat (expand)&#45;&gt;[root] ncloud_nat_gateway.hashicat (expand) -->
<g id="edge22" class="edge">
<title>[root] ncloud_route.hashicat (expand)-&gt;[root] ncloud_nat_gateway.hashicat (expand)</title>
<path fill="none" stroke="#000000" d="M720.5016,-433.8827C769.8173,-421.7943 828.3909,-405.7204 835.6796,-396 845.2783,-383.199 843.3843,-374.0228 835.6796,-360 828.7696,-347.4235 817.5529,-337.3606 805.5014,-329.4922"/>
<polygon fill="#000000" stroke="#000000" points="806.9999,-326.3089 796.6282,-324.1461 803.3874,-332.3047 806.9999,-326.3089"/>
</g>
<!-- [root] ncloud_server.hashicat (expand)&#45;&gt;[root] data.ncloud_server_products.hashicat (expand) -->
<g id="edge23" class="edge">
<title>[root] ncloud_server.hashicat (expand)-&gt;[root] data.ncloud_server_products.hashicat (expand)</title>
<path fill="none" stroke="#000000" d="M961.772,-359.7623C971.4078,-334.9846 988.7185,-290.4714 999.9486,-261.5939"/>
<polygon fill="#000000" stroke="#000000" points="1003.2822,-262.6783 1003.6447,-252.0896 996.7582,-260.1411 1003.2822,-262.6783"/>
</g>
<!-- [root] ncloud_server.hashicat (expand)&#45;&gt;[root] ncloud_login_key.hashicat (expand) -->
<g id="edge24" class="edge">
<title>[root] ncloud_server.hashicat (expand)-&gt;[root] ncloud_login_key.hashicat (expand)</title>
<path fill="none" stroke="#000000" d="M941.9816,-359.9555C915.1581,-321.8379 852.6236,-232.973 821.2811,-188.4337"/>
<polygon fill="#000000" stroke="#000000" points="824.0657,-186.3089 815.4484,-180.1451 818.341,-190.3374 824.0657,-186.3089"/>
</g>
<!-- [root] ncloud_subnet.hashicat (expand) -->
<g id="node13" class="node">
<title>[root] ncloud_subnet.hashicat (expand)</title>
<polygon fill="none" stroke="#000000" points="642.2042,-324 495.155,-324 495.155,-288 642.2042,-288 642.2042,-324"/>
<text text-anchor="middle" x="568.6796" y="-301.8" font-family="Times,serif" font-size="14.00" fill="#000000">ncloud_subnet.hashicat</text>
</g>
<!-- [root] ncloud_server.hashicat (expand)&#45;&gt;[root] ncloud_subnet.hashicat (expand) -->
<g id="edge25" class="edge">
<title>[root] ncloud_server.hashicat (expand)-&gt;[root] ncloud_subnet.hashicat (expand)</title>
<path fill="none" stroke="#000000" d="M882.3543,-365.9962C823.014,-355.9536 736.5665,-340.8817 652.3932,-324.3067"/>
<polygon fill="#000000" stroke="#000000" points="652.8966,-320.8385 642.4075,-322.331 651.538,-327.7054 652.8966,-320.8385"/>
</g>
<!-- [root] ncloud_subnet.hashicat (expand)&#45;&gt;[root] ncloud_network_acl.hashicat (expand) -->
<g id="edge26" class="edge">
<title>[root] ncloud_subnet.hashicat (expand)-&gt;[root] ncloud_network_acl.hashicat (expand)</title>
<path fill="none" stroke="#000000" d="M564.1374,-287.8314C562.1912,-280.0463 559.8728,-270.7729 557.7133,-262.1347"/>
<polygon fill="#000000" stroke="#000000" points="561.1038,-261.2658 555.2829,-252.4133 554.3128,-262.9636 561.1038,-261.2658"/>
</g>
<!-- [root] ncloud_subnet.hashicat (expand)&#45;&gt;[root] var.zone -->
<g id="edge27" class="edge">
<title>[root] ncloud_subnet.hashicat (expand)-&gt;[root] var.zone</title>
<path fill="none" stroke="#000000" d="M599.4654,-287.8314C615.0699,-278.6221 634.2036,-267.3301 650.9099,-257.4706"/>
<polygon fill="#000000" stroke="#000000" points="653.0705,-260.2596 659.9037,-252.1628 649.5127,-254.2312 653.0705,-260.2596"/>
</g>
<!-- [root] ncloud_vpc.hashicat (expand)&#45;&gt;[root] provider[&quot;registry.terraform.io/navercloudplatform/ncloud&quot;] -->
<g id="edge28" class="edge">
<title>[root] ncloud_vpc.hashicat (expand)-&gt;[root] provider["registry.terraform.io/navercloudplatform/ncloud"]</title>
<path fill="none" stroke="#000000" d="M645.9799,-150.6708C715.8849,-138.5427 827.2778,-119.2167 905.5166,-105.6427"/>
<polygon fill="#000000" stroke="#000000" points="906.5932,-109.0083 915.8477,-103.8504 905.3966,-102.1114 906.5932,-109.0083"/>
</g>
<!-- [root] var.address_space -->
<g id="node20" class="node">
<title>[root] var.address_space</title>
<polygon fill="none" stroke="#000000" points="537.623,-108 425.7362,-108 425.7362,-72 543.623,-72 543.623,-102 537.623,-108"/>
<polyline fill="none" stroke="#000000" points="537.623,-108 537.623,-102 "/>
<polyline fill="none" stroke="#000000" points="543.623,-102 537.623,-102 "/>
<text text-anchor="middle" x="484.6796" y="-85.8" font-family="Times,serif" font-size="14.00" fill="#000000">var.address_space</text>
</g>
<!-- [root] ncloud_vpc.hashicat (expand)&#45;&gt;[root] var.address_space -->
<g id="edge29" class="edge">
<title>[root] ncloud_vpc.hashicat (expand)-&gt;[root] var.address_space</title>
<path fill="none" stroke="#000000" d="M556.4547,-143.8314C544.5168,-134.8779 529.954,-123.9558 517.0736,-114.2955"/>
<polygon fill="#000000" stroke="#000000" points="518.9967,-111.3629 508.8967,-108.1628 514.7967,-116.9629 518.9967,-111.3629"/>
</g>
<!-- [root] ncloud_vpc.hashicat (expand)&#45;&gt;[root] var.prefix -->
<g id="edge30" class="edge">
<title>[root] ncloud_vpc.hashicat (expand)-&gt;[root] var.prefix</title>
<path fill="none" stroke="#000000" d="M584.7171,-143.8314C586.4283,-136.131 588.4631,-126.9743 590.3648,-118.4166"/>
<polygon fill="#000000" stroke="#000000" points="593.835,-118.9344 592.5878,-108.4133 587.0017,-117.4159 593.835,-118.9344"/>
</g>
<!-- [root] null_resource.configure&#45;cat&#45;app (expand) -->
<g id="node15" class="node">
<title>[root] null_resource.configure-cat-app (expand)</title>
<polygon fill="none" stroke="#000000" points="1363.3671,-540 1167.9921,-540 1167.9921,-504 1363.3671,-504 1363.3671,-540"/>
<text text-anchor="middle" x="1265.6796" y="-517.8" font-family="Times,serif" font-size="14.00" fill="#000000">null_resource.configure-cat-app</text>
</g>
<!-- [root] null_resource.configure&#45;cat&#45;app (expand)&#45;&gt;[root] data.ncloud_root_password.hashicat (expand) -->
<g id="edge31" class="edge">
<title>[root] null_resource.configure-cat-app (expand)-&gt;[root] data.ncloud_root_password.hashicat (expand)</title>
<path fill="none" stroke="#000000" d="M1167.9411,-505.1647C1106.5633,-494.5924 1027.1156,-480.9076 962.7064,-469.8132"/>
<polygon fill="#000000" stroke="#000000" points="962.9523,-466.3041 952.5033,-468.0558 961.764,-473.2025 962.9523,-466.3041"/>
</g>
<!-- [root] null_resource.configure&#45;cat&#45;app (expand)&#45;&gt;[root] ncloud_public_ip.hashicat (expand) -->
<g id="edge32" class="edge">
<title>[root] null_resource.configure-cat-app (expand)-&gt;[root] ncloud_public_ip.hashicat (expand)</title>
<path fill="none" stroke="#000000" d="M1213.4609,-503.9243C1184.9025,-494.0387 1149.3501,-481.7321 1119.4228,-471.3726"/>
<polygon fill="#000000" stroke="#000000" points="1120.5146,-468.0469 1109.9198,-468.0831 1118.2247,-474.6618 1120.5146,-468.0469"/>
</g>
<!-- [root] provider[&quot;registry.terraform.io/hashicorp/null&quot;] -->
<g id="node18" class="node">
<title>[root] provider["registry.terraform.io/hashicorp/null"]</title>
<polygon fill="none" stroke="#000000" points="1730.6796,-468 1456.1591,-450 1730.6796,-432 2005.2001,-450 1730.6796,-468"/>
<text text-anchor="middle" x="1730.6796" y="-445.8" font-family="Times,serif" font-size="14.00" fill="#000000">provider["registry.terraform.io/hashicorp/null"]</text>
</g>
<!-- [root] null_resource.configure&#45;cat&#45;app (expand)&#45;&gt;[root] provider[&quot;registry.terraform.io/hashicorp/null&quot;] -->
<g id="edge33" class="edge">
<title>[root] null_resource.configure-cat-app (expand)-&gt;[root] provider["registry.terraform.io/hashicorp/null"]</title>
<path fill="none" stroke="#000000" d="M1363.4423,-506.8626C1444.6785,-494.284 1559.4249,-476.5168 1638.9434,-464.2043"/>
<polygon fill="#000000" stroke="#000000" points="1639.601,-467.6443 1648.9477,-462.6553 1638.5299,-460.7267 1639.601,-467.6443"/>
</g>
<!-- [root] var.height -->
<g id="node21" class="node">
<title>[root] var.height</title>
<polygon fill="none" stroke="#000000" points="1224.0516,-468 1157.3076,-468 1157.3076,-432 1230.0516,-432 1230.0516,-462 1224.0516,-468"/>
<polyline fill="none" stroke="#000000" points="1224.0516,-468 1224.0516,-462 "/>
<polyline fill="none" stroke="#000000" points="1230.0516,-462 1224.0516,-462 "/>
<text text-anchor="middle" x="1193.6796" y="-445.8" font-family="Times,serif" font-size="14.00" fill="#000000">var.height</text>
</g>
<!-- [root] null_resource.configure&#45;cat&#45;app (expand)&#45;&gt;[root] var.height -->
<g id="edge34" class="edge">
<title>[root] null_resource.configure-cat-app (expand)-&gt;[root] var.height</title>
<path fill="none" stroke="#000000" d="M1247.511,-503.8314C1238.9644,-495.2848 1228.6239,-484.9443 1219.2994,-475.6198"/>
<polygon fill="#000000" stroke="#000000" points="1221.6388,-473.0095 1212.0929,-468.4133 1216.6891,-477.9592 1221.6388,-473.0095"/>
</g>
<!-- [root] var.placeholder -->
<g id="node22" class="node">
<title>[root] var.placeholder</title>
<polygon fill="none" stroke="#000000" points="1344.8555,-468 1248.5037,-468 1248.5037,-432 1350.8555,-432 1350.8555,-462 1344.8555,-468"/>
<polyline fill="none" stroke="#000000" points="1344.8555,-468 1344.8555,-462 "/>
<polyline fill="none" stroke="#000000" points="1350.8555,-462 1344.8555,-462 "/>
<text text-anchor="middle" x="1299.6796" y="-445.8" font-family="Times,serif" font-size="14.00" fill="#000000">var.placeholder</text>
</g>
<!-- [root] null_resource.configure&#45;cat&#45;app (expand)&#45;&gt;[root] var.placeholder -->
<g id="edge35" class="edge">
<title>[root] null_resource.configure-cat-app (expand)-&gt;[root] var.placeholder</title>
<path fill="none" stroke="#000000" d="M1274.2592,-503.8314C1278.0154,-495.8771 1282.5053,-486.369 1286.6594,-477.5723"/>
<polygon fill="#000000" stroke="#000000" points="1289.8792,-478.9503 1290.9844,-468.4133 1283.5495,-475.9612 1289.8792,-478.9503"/>
</g>
<!-- [root] var.width -->
<g id="node26" class="node">
<title>[root] var.width</title>
<polygon fill="none" stroke="#000000" points="1432.4431,-468 1368.9161,-468 1368.9161,-432 1438.4431,-432 1438.4431,-462 1432.4431,-468"/>
<polyline fill="none" stroke="#000000" points="1432.4431,-468 1432.4431,-462 "/>
<polyline fill="none" stroke="#000000" points="1438.4431,-462 1432.4431,-462 "/>
<text text-anchor="middle" x="1403.6796" y="-445.8" font-family="Times,serif" font-size="14.00" fill="#000000">var.width</text>
</g>
<!-- [root] null_resource.configure&#45;cat&#45;app (expand)&#45;&gt;[root] var.width -->
<g id="edge36" class="edge">
<title>[root] null_resource.configure-cat-app (expand)-&gt;[root] var.width</title>
<path fill="none" stroke="#000000" d="M1300.5028,-503.8314C1318.4807,-494.4516 1340.5999,-482.9112 1359.7412,-472.9244"/>
<polygon fill="#000000" stroke="#000000" points="1361.6207,-475.8916 1368.8675,-468.1628 1358.3827,-469.6855 1361.6207,-475.8916"/>
</g>
<!-- [root] output.catapp_url -->
<g id="node16" class="node">
<title>[root] output.catapp_url</title>
<polygon fill="none" stroke="#000000" points="1128.047,-540 1019.3122,-540 1019.3122,-504 1134.047,-504 1134.047,-534 1128.047,-540"/>
<polyline fill="none" stroke="#000000" points="1128.047,-540 1128.047,-534 "/>
<polyline fill="none" stroke="#000000" points="1134.047,-534 1128.047,-534 "/>
<text text-anchor="middle" x="1076.6796" y="-517.8" font-family="Times,serif" font-size="14.00" fill="#000000">output.catapp_url</text>
</g>
<!-- [root] output.catapp_url&#45;&gt;[root] ncloud_public_ip.hashicat (expand) -->
<g id="edge37" class="edge">
<title>[root] output.catapp_url-&gt;[root] ncloud_public_ip.hashicat (expand)</title>
<path fill="none" stroke="#000000" d="M1071.8851,-503.8314C1069.8307,-496.0463 1067.3836,-486.7729 1065.104,-478.1347"/>
<polygon fill="#000000" stroke="#000000" points="1068.4744,-477.1892 1062.5387,-468.4133 1061.7061,-478.9753 1068.4744,-477.1892"/>
</g>
<!-- [root] output.ssh_pw -->
<g id="node17" class="node">
<title>[root] output.ssh_pw</title>
<polygon fill="none" stroke="#000000" points="995.457,-540 903.9022,-540 903.9022,-504 1001.457,-504 1001.457,-534 995.457,-540"/>
<polyline fill="none" stroke="#000000" points="995.457,-540 995.457,-534 "/>
<polyline fill="none" stroke="#000000" points="1001.457,-534 995.457,-534 "/>
<text text-anchor="middle" x="952.6796" y="-517.8" font-family="Times,serif" font-size="14.00" fill="#000000">output.ssh_pw</text>
</g>
<!-- [root] output.ssh_pw&#45;&gt;[root] data.ncloud_root_password.hashicat (expand) -->
<g id="edge38" class="edge">
<title>[root] output.ssh_pw-&gt;[root] data.ncloud_root_password.hashicat (expand)</title>
<path fill="none" stroke="#000000" d="M926.1837,-503.8314C913.0022,-494.7927 896.8949,-483.7476 882.7085,-474.0198"/>
<polygon fill="#000000" stroke="#000000" points="884.3937,-470.9316 874.1671,-468.1628 880.435,-476.7047 884.3937,-470.9316"/>
</g>
<!-- [root] output.ssh_pw&#45;&gt;[root] ncloud_public_ip.hashicat (expand) -->
<g id="edge39" class="edge">
<title>[root] output.ssh_pw-&gt;[root] ncloud_public_ip.hashicat (expand)</title>
<path fill="none" stroke="#000000" d="M979.1755,-503.8314C992.357,-494.7927 1008.4643,-483.7476 1022.6507,-474.0198"/>
<polygon fill="#000000" stroke="#000000" points="1024.9242,-476.7047 1031.1921,-468.1628 1020.9655,-470.9316 1024.9242,-476.7047"/>
</g>
<!-- [root] var.region -->
<g id="node24" class="node">
<title>[root] var.region</title>
<polygon fill="none" stroke="#000000" points="984.3207,-36 917.0385,-36 917.0385,0 990.3207,0 990.3207,-30 984.3207,-36"/>
<polyline fill="none" stroke="#000000" points="984.3207,-36 984.3207,-30 "/>
<polyline fill="none" stroke="#000000" points="990.3207,-30 984.3207,-30 "/>
<text text-anchor="middle" x="953.6796" y="-13.8" font-family="Times,serif" font-size="14.00" fill="#000000">var.region</text>
</g>
<!-- [root] provider[&quot;registry.terraform.io/navercloudplatform/ncloud&quot;]&#45;&gt;[root] var.region -->
<g id="edge46" class="edge">
<title>[root] provider["registry.terraform.io/navercloudplatform/ncloud"]-&gt;[root] var.region</title>
<path fill="none" stroke="#000000" d="M985.2976,-72.2022C980.4878,-63.9569 974.6696,-53.9828 969.3422,-44.8501"/>
<polygon fill="#000000" stroke="#000000" points="972.2959,-42.9674 964.2339,-36.0931 966.2494,-46.4945 972.2959,-42.9674"/>
</g>
<!-- [root] var.site -->
<g id="node25" class="node">
<title>[root] var.site</title>
<polygon fill="none" stroke="#000000" points="1058.9955,-36 1008.3637,-36 1008.3637,0 1064.9955,0 1064.9955,-30 1058.9955,-36"/>
<polyline fill="none" stroke="#000000" points="1058.9955,-36 1058.9955,-30 "/>
<polyline fill="none" stroke="#000000" points="1064.9955,-30 1058.9955,-30 "/>
<text text-anchor="middle" x="1036.6796" y="-13.8" font-family="Times,serif" font-size="14.00" fill="#000000">var.site</text>
</g>
<!-- [root] provider[&quot;registry.terraform.io/navercloudplatform/ncloud&quot;]&#45;&gt;[root] var.site -->
<g id="edge47" class="edge">
<title>[root] provider["registry.terraform.io/navercloudplatform/ncloud"]-&gt;[root] var.site</title>
<path fill="none" stroke="#000000" d="M1005.8144,-72.2022C1010.5097,-63.9569 1016.1894,-53.9828 1021.3899,-44.8501"/>
<polygon fill="#000000" stroke="#000000" points="1024.4696,-46.5149 1026.3766,-36.0931 1018.3867,-43.051 1024.4696,-46.5149"/>
</g>
<!-- [root] meta.count&#45;boundary (EachMode fixup) -->
<g id="node28" class="node">
<title>[root] meta.count-boundary (EachMode fixup)</title>
<ellipse fill="none" stroke="#000000" cx="841.6796" cy="-594" rx="191.4666" ry="18"/>
<text text-anchor="middle" x="841.6796" y="-589.8" font-family="Times,serif" font-size="14.00" fill="#000000">[root] meta.count-boundary (EachMode fixup)</text>
</g>
<!-- [root] meta.count&#45;boundary (EachMode fixup)&#45;&gt;[root] ncloud_access_control_group_rule.hashicat (expand) -->
<g id="edge5" class="edge">
<title>[root] meta.count-boundary (EachMode fixup)-&gt;[root] ncloud_access_control_group_rule.hashicat (expand)</title>
<path fill="none" stroke="#000000" d="M665.3,-586.9708C498.6084,-578.9431 268.9029,-563.7599 233.6796,-540 212.6479,-525.813 200.7002,-498.9459 194.284,-478.2454"/>
<polygon fill="#000000" stroke="#000000" points="197.5805,-477.0406 191.4885,-468.3724 190.8453,-478.9476 197.5805,-477.0406"/>
</g>
<!-- [root] meta.count&#45;boundary (EachMode fixup)&#45;&gt;[root] ncloud_network_acl_rule.hashicat (expand) -->
<g id="edge6" class="edge">
<title>[root] meta.count-boundary (EachMode fixup)-&gt;[root] ncloud_network_acl_rule.hashicat (expand)</title>
<path fill="none" stroke="#000000" d="M656.0348,-589.5767C491.2247,-583.6769 272.275,-570.2042 244.6796,-540 233.8875,-528.1877 234.9842,-516.7279 244.6796,-504 255.7234,-489.502 289.753,-477.9135 326.4261,-469.2463"/>
<polygon fill="#000000" stroke="#000000" points="327.3351,-472.6289 336.3064,-466.9927 325.7785,-465.8042 327.3351,-472.6289"/>
</g>
<!-- [root] meta.count&#45;boundary (EachMode fixup)&#45;&gt;[root] ncloud_route.hashicat (expand) -->
<g id="edge7" class="edge">
<title>[root] meta.count-boundary (EachMode fixup)-&gt;[root] ncloud_route.hashicat (expand)</title>
<path fill="none" stroke="#000000" d="M852.071,-575.8123C861.8001,-556.0989 872.647,-524.6925 856.6796,-504 852.5712,-498.6759 786.5766,-481.9574 730.3768,-468.5181"/>
<polygon fill="#000000" stroke="#000000" points="730.9141,-465.0483 720.3753,-466.136 729.2922,-471.8578 730.9141,-465.0483"/>
</g>
<!-- [root] meta.count&#45;boundary (EachMode fixup)&#45;&gt;[root] null_resource.configure&#45;cat&#45;app (expand) -->
<g id="edge8" class="edge">
<title>[root] meta.count-boundary (EachMode fixup)-&gt;[root] null_resource.configure-cat-app (expand)</title>
<path fill="none" stroke="#000000" d="M934.4661,-578.2438C1000.3219,-567.0607 1088.9178,-552.0162 1157.9087,-540.3007"/>
<polygon fill="#000000" stroke="#000000" points="1158.6675,-543.722 1167.9404,-538.5972 1157.4956,-536.8208 1158.6675,-543.722"/>
</g>
<!-- [root] meta.count&#45;boundary (EachMode fixup)&#45;&gt;[root] output.catapp_url -->
<g id="edge9" class="edge">
<title>[root] meta.count-boundary (EachMode fixup)-&gt;[root] output.catapp_url</title>
<path fill="none" stroke="#000000" d="M897.968,-576.7542C931.4796,-566.4868 974.2077,-553.3956 1009.4807,-542.5886"/>
<polygon fill="#000000" stroke="#000000" points="1010.682,-545.8812 1019.218,-539.6053 1008.6313,-539.1883 1010.682,-545.8812"/>
</g>
<!-- [root] meta.count&#45;boundary (EachMode fixup)&#45;&gt;[root] output.ssh_pw -->
<g id="edge10" class="edge">
<title>[root] meta.count-boundary (EachMode fixup)-&gt;[root] output.ssh_pw</title>
<path fill="none" stroke="#000000" d="M869.4033,-576.0171C883.5744,-566.825 901.0009,-555.5213 916.2435,-545.6342"/>
<polygon fill="#000000" stroke="#000000" points="918.4397,-548.3815 924.9247,-540.0032 914.6304,-542.5088 918.4397,-548.3815"/>
</g>
<!-- [root] provider[&quot;registry.terraform.io/hashicorp/null&quot;] (close) -->
<g id="node31" class="node">
<title>[root] provider["registry.terraform.io/hashicorp/null"] (close)</title>
<ellipse fill="none" stroke="#000000" cx="1298.6796" cy="-594" rx="247.238" ry="18"/>
<text text-anchor="middle" x="1298.6796" y="-589.8" font-family="Times,serif" font-size="14.00" fill="#000000">[root] provider["registry.terraform.io/hashicorp/null"] (close)</text>
</g>
<!-- [root] provider[&quot;registry.terraform.io/hashicorp/null&quot;] (close)&#45;&gt;[root] null_resource.configure&#45;cat&#45;app (expand) -->
<g id="edge40" class="edge">
<title>[root] provider["registry.terraform.io/hashicorp/null"] (close)-&gt;[root] null_resource.configure-cat-app (expand)</title>
<path fill="none" stroke="#000000" d="M1290.3523,-575.8314C1286.7066,-567.8771 1282.3487,-558.369 1278.3169,-549.5723"/>
<polygon fill="#000000" stroke="#000000" points="1281.4673,-548.0456 1274.119,-540.4133 1275.1039,-550.9622 1281.4673,-548.0456"/>
</g>
<!-- [root] provider[&quot;registry.terraform.io/navercloudplatform/ncloud&quot;] (close) -->
<g id="node32" class="node">
<title>[root] provider["registry.terraform.io/navercloudplatform/ncloud"] (close)</title>
<ellipse fill="none" stroke="#000000" cx="550.6796" cy="-522" rx="297.4828" ry="18"/>
<text text-anchor="middle" x="550.6796" y="-517.8" font-family="Times,serif" font-size="14.00" fill="#000000">[root] provider["registry.terraform.io/navercloudplatform/ncloud"] (close)</text>
</g>
<!-- [root] provider[&quot;registry.terraform.io/navercloudplatform/ncloud&quot;] (close)&#45;&gt;[root] data.ncloud_root_password.hashicat (expand) -->
<g id="edge41" class="edge">
<title>[root] provider["registry.terraform.io/navercloudplatform/ncloud"] (close)-&gt;[root] data.ncloud_root_password.hashicat (expand)</title>
<path fill="none" stroke="#000000" d="M622.9542,-504.4789C665.3364,-494.2044 719.0836,-481.1748 763.3877,-470.4344"/>
<polygon fill="#000000" stroke="#000000" points="764.3749,-473.7965 773.2688,-468.039 762.7256,-466.9936 764.3749,-473.7965"/>
</g>
<!-- [root] provider[&quot;registry.terraform.io/navercloudplatform/ncloud&quot;] (close)&#45;&gt;[root] ncloud_access_control_group_rule.hashicat (expand) -->
<g id="edge42" class="edge">
<title>[root] provider["registry.terraform.io/navercloudplatform/ncloud"] (close)-&gt;[root] ncloud_access_control_group_rule.hashicat (expand)</title>
<path fill="none" stroke="#000000" d="M463.7321,-504.7542C411.1098,-494.3167 343.7756,-480.9612 288.7826,-470.0535"/>
<polygon fill="#000000" stroke="#000000" points="289.154,-466.559 278.6641,-468.0465 287.792,-473.4253 289.154,-466.559"/>
</g>
<!-- [root] provider[&quot;registry.terraform.io/navercloudplatform/ncloud&quot;] (close)&#45;&gt;[root] ncloud_network_acl_rule.hashicat (expand) -->
<g id="edge43" class="edge">
<title>[root] provider["registry.terraform.io/navercloudplatform/ncloud"] (close)-&gt;[root] ncloud_network_acl_rule.hashicat (expand)</title>
<path fill="none" stroke="#000000" d="M523.2057,-504.0171C509.1622,-494.825 491.8928,-483.5213 476.7875,-473.6342"/>
<polygon fill="#000000" stroke="#000000" points="478.4683,-470.5514 468.1845,-468.0032 474.6347,-476.4083 478.4683,-470.5514"/>
</g>
<!-- [root] provider[&quot;registry.terraform.io/navercloudplatform/ncloud&quot;] (close)&#45;&gt;[root] ncloud_public_ip.hashicat (expand) -->
<g id="edge44" class="edge">
<title>[root] provider["registry.terraform.io/navercloudplatform/ncloud"] (close)-&gt;[root] ncloud_public_ip.hashicat (expand)</title>
<path fill="none" stroke="#000000" d="M691.1083,-506.1179C769.2186,-496.7172 868.3856,-483.8521 965.8397,-468.0819"/>
<polygon fill="#000000" stroke="#000000" points="966.5665,-471.5097 975.8734,-466.4468 965.4406,-464.6008 966.5665,-471.5097"/>
</g>
<!-- [root] provider[&quot;registry.terraform.io/navercloudplatform/ncloud&quot;] (close)&#45;&gt;[root] ncloud_route.hashicat (expand) -->
<g id="edge45" class="edge">
<title>[root] provider["registry.terraform.io/navercloudplatform/ncloud"] (close)-&gt;[root] ncloud_route.hashicat (expand)</title>
<path fill="none" stroke="#000000" d="M575.6559,-504.0171C588.3034,-494.9109 603.829,-483.7324 617.4688,-473.9118"/>
<polygon fill="#000000" stroke="#000000" points="619.6049,-476.6867 625.6752,-468.0032 615.5147,-471.0059 619.6049,-476.6867"/>
</g>
<!-- [root] root -->
<g id="node33" class="node">
<title>[root] root</title>
<ellipse fill="none" stroke="#000000" cx="841.6796" cy="-666" rx="50.9823" ry="18"/>
<text text-anchor="middle" x="841.6796" y="-661.8" font-family="Times,serif" font-size="14.00" fill="#000000">[root] root</text>
</g>
<!-- [root] root&#45;&gt;[root] meta.count&#45;boundary (EachMode fixup) -->
<g id="edge48" class="edge">
<title>[root] root-&gt;[root] meta.count-boundary (EachMode fixup)</title>
<path fill="none" stroke="#000000" d="M841.6796,-647.8314C841.6796,-640.131 841.6796,-630.9743 841.6796,-622.4166"/>
<polygon fill="#000000" stroke="#000000" points="845.1797,-622.4132 841.6796,-612.4133 838.1797,-622.4133 845.1797,-622.4132"/>
</g>
<!-- [root] root&#45;&gt;[root] provider[&quot;registry.terraform.io/hashicorp/null&quot;] (close) -->
<g id="edge49" class="edge">
<title>[root] root-&gt;[root] provider["registry.terraform.io/hashicorp/null"] (close)</title>
<path fill="none" stroke="#000000" d="M888.439,-658.6331C957.5386,-647.7465 1089.0383,-627.0288 1184.5785,-611.9765"/>
<polygon fill="#000000" stroke="#000000" points="1185.2489,-615.4142 1194.5823,-610.4005 1184.1594,-608.4995 1185.2489,-615.4142"/>
</g>
<!-- [root] root&#45;&gt;[root] provider[&quot;registry.terraform.io/navercloudplatform/ncloud&quot;] (close) -->
<g id="edge50" class="edge">
<title>[root] root-&gt;[root] provider["registry.terraform.io/navercloudplatform/ncloud"] (close)</title>
<path fill="none" stroke="#000000" d="M793.3563,-660.0629C751.0997,-653.2678 689.2284,-639.3379 641.6796,-612 613.2362,-595.6466 587.3304,-568.2169 570.4974,-547.9285"/>
<polygon fill="#000000" stroke="#000000" points="573.0873,-545.5652 564.0736,-539.997 567.6476,-549.9709 573.0873,-545.5652"/>
</g>
</g>
</svg>